static_grf.mot
version=1
nRows=15
nColumns 19
inDegrees=yes
endheader
time	1_ground_force_vx	1_ground_force_vy	1_ground_force_vz	1_ground_force_px	1_ground_force_py	1_ground_force_pz	1_ground_torque_x	1_ground_torque_y	1_ground_torque_z	2_ground_force_vx	2_ground_force_vy	2_ground_force_vz	2_ground_force_px	2_ground_force_py	2_ground_force_pz	2_ground_torque_x	2_ground_torque_y	2_ground_torque_z
            0.005000	           -2.806723	          403.821591	          -46.594984	           -0.251313	            0.006181	           -0.396324	           -0.034114	            4.908251	           -0.566339	           -0.099132	          487.459464	           49.746644	           -0.260533	            0.005510	           -0.688529	            0.000945	           -4.647544	           -0.474295
            0.005500	           -2.990568	          404.543208	          -46.729008	           -0.251178	            0.006180	           -0.396045	           -0.035795	            4.842083	           -0.559312	           -0.054358	          488.012725	           49.560883	           -0.260473	            0.005511	           -0.688694	            0.000514	           -4.617554	           -0.468943
            0.006000	           -3.082027	          404.542797	          -46.637069	           -0.251277	            0.006178	           -0.395667	           -0.037035	            4.861172	           -0.560412	            0.178542	          488.382080	           49.515170	           -0.260325	            0.005511	           -0.688616	           -0.001711	           -4.681059	           -0.474594
            0.006500	           -3.173143	          404.541797	          -46.407558	           -0.251265	            0.006181	           -0.396248	           -0.037688	            4.804784	           -0.551187	           -0.007364	          488.011722	           49.889360	           -0.260420	            0.005511	           -0.688541	            0.000070	           -4.659641	           -0.476354
            0.007000	           -2.852533	          403.641286	          -46.595643	           -0.251370	            0.006181	           -0.396296	           -0.034726	            4.913856	           -0.567247	           -0.287943	          487.827738	           49.560326	           -0.260410	            0.005512	           -0.688789	            0.002715	           -4.599336	           -0.467265
            0.007500	           -3.036034	          403.100877	          -46.689218	           -0.251424	            0.006181	           -0.396360	           -0.036636	            4.864261	           -0.563404	           -0.238352	          487.090675	           49.745390	           -0.260406	            0.005511	           -0.688532	            0.002257	           -4.611608	           -0.470972
            0.008000	           -2.989771	          404.541832	          -46.408013	           -0.251122	            0.006180	           -0.395966	           -0.036272	            4.907848	           -0.563016	           -0.054981	          488.196592	           49.655397	           -0.260600	            0.005511	           -0.688711	            0.000528	           -4.692412	           -0.477274
            0.008500	           -2.853024	          405.083805	          -46.681171	           -0.251132	            0.006179	           -0.395802	           -0.034353	            4.877610	           -0.562087	           -0.056893	          488.748344	           49.845080	           -0.260263	            0.005512	           -0.688836	            0.000543	           -4.662411	           -0.475497
            0.009000	           -2.715657	          404.723693	          -46.774770	           -0.251177	            0.006179	           -0.395794	           -0.032698	            4.873083	           -0.563192	           -0.010167	          488.749518	           49.563492	           -0.259971	            0.005514	           -0.689029	            0.000096	           -4.609214	           -0.467415
            0.009500	           -3.082075	          404.182463	          -46.684467	           -0.251195	            0.006180	           -0.396169	           -0.037174	            4.874979	           -0.563077	           -0.242319	          488.195413	           49.796261	           -0.260266	            0.005512	           -0.688707	            0.002291	           -4.615371	           -0.470771
            0.010000	           -2.898849	          404.362930	          -46.730009	           -0.251304	            0.006180	           -0.396013	           -0.034982	            4.879715	           -0.563922	            0.129719	          488.934166	           49.564089	           -0.260228	            0.005513	           -0.688856	           -0.001227	           -4.623245	           -0.468666
            0.010500	           -2.898313	          404.542243	          -46.499952	           -0.251305	            0.006179	           -0.395879	           -0.034934	            4.875985	           -0.560468	           -0.006096	          487.643943	           49.747262	           -0.260402	            0.005512	           -0.688740	            0.000058	           -4.673366	           -0.476756
            0.011000	           -2.714223	          403.099367	          -46.323168	           -0.251295	            0.006181	           -0.396219	           -0.033037	            4.906421	           -0.563834	           -0.240387	          487.643432	           49.653505	           -0.260221	            0.005512	           -0.688543	            0.002277	           -4.618990	           -0.470321
            0.011500	           -2.807442	          405.264503	          -46.772224	           -0.251196	            0.006178	           -0.395702	           -0.034125	            4.926045	           -0.568523	           -0.054255	          488.011888	           49.795524	           -0.260343	            0.005512	           -0.688887	            0.000519	           -4.664848	           -0.475990
            0.012000	           -2.898394	          404.362143	          -46.546585	           -0.251127	            0.006180	           -0.395994	           -0.034892	            4.867917	           -0.560351	           -0.192229	          487.275487	           49.605243	           -0.260517	            0.005510	           -0.688357	            0.001815	           -4.601112	           -0.468399
